ffmpeg started on 2025-04-30 at 17:53:53
Report written to "D:\Convert\FFMetrics\reports\ssim_report-6.txt"
Log level: 32
Command line:
ffmpeg -hide_banner -nostdin -i "G:\\\xc0\xed\xe8\xec\xe5\\\xce\xed\xe3\xee\xe8\xed\xe3\xe8\\!_37_\xc7\xe8\xec\xe0_2025\\JamClub\\\xcf\xee\xe4\xed\xff\xf2\xe8\xe5 \xf3\xf0\xee\xe2\xed\xff \xe2 \xee\xe4\xe8\xed\xee\xf7\xea\xf3\\\xd2\xc2-2\\JamClub_Ore_dake_Level_Up_na_Ken_Season_2_13_1080p_HEVC.mkv" -i "G:\\\xc0\xed\xe8\xec\xe5\\\xce\xed\xe3\xee\xe8\xed\xe3\xe8\\!_37_\xc7\xe8\xec\xe0_2025\\JamClub\\\xcf\xee\xe4\xed\xff\xf2\xe8\xe5 \xf3\xf0\xee\xe2\xed\xff \xe2 \xee\xe4\xe8\xed\xee\xf7\xea\xf3\\\xd2\xc2-2\\JamClub_Ore_dake_Level_Up_na_Ken_Season_2_13_1080p.mp4" -lavfi "[0:v]settb=AVTB,setpts=PTS-STARTPTS,format=pix_fmts=yuv420p10,fps=24000/1001,scale=1920:1080:flags=bicubic[main];[1:v]settb=AVTB,setpts=PTS-STARTPTS,format=pix_fmts=yuv420p,fps=24000/1001,scale=1920:1080:flags=bicubic[ref];[main][ref]ssim=eof_action=endall:stats_file='D\\:/Convert/FFMetrics/logs/ssim_logfile-6.txt'" -f null -
Input #0, matroska,webm, from 'G:\Аниме\Онгоинги\!_37_Зима_2025\JamClub\Поднятие уровня в одиночку\ТВ-2\JamClub_Ore_dake_Level_Up_na_Ken_Season_2_13_1080p_HEVC.mkv':
  Metadata:
    COMPATIBLE_BRANDS: isomiso2avc1mp41
    MAJOR_BRAND     : isom
    MINOR_VERSION   : 512
    ENCODER         : Lavf61.7.100
  Duration: 00:24:02.33, start: -0.001000, bitrate: 1905 kb/s
  Stream #0:0: Video: hevc (Main 10), yuv420p10le(tv, bt709, progressive), 1920x1080 [SAR 1:1 DAR 16:9], 23.98 fps, 23.98 tbr, 1k tbn (default)
      Metadata:
        HANDLER_NAME    : VideoHandler
        VENDOR_ID       : [0][0][0][0]
        ENCODER         : Lavc61.19.100 libx265
        BPS             : 1706806
        DURATION        : 00:24:02.190708333
        NUMBER_OF_FRAMES: 34579
        NUMBER_OF_BYTES : 307692333
        _STATISTICS_WRITING_APP: mkvpropedit v66.0.0 ('Josie') 64-bit
        _STATISTICS_WRITING_DATE_UTC: 2025-04-30 10:37:14
        _STATISTICS_TAGS: BPS DURATION NUMBER_OF_FRAMES NUMBER_OF_BYTES
  Stream #0:1(eng): Audio: aac (LC), 48000 Hz, stereo, fltp (default)
      Metadata:
        HANDLER_NAME    : SoundHandler
        VENDOR_ID       : [0][0][0][0]
        ENCODER         : Lavc61.19.100 aac
        BPS             : 194704
        DURATION        : 00:24:02.285000000
        NUMBER_OF_FRAMES: 67608
        NUMBER_OF_BYTES : 35102363
        _STATISTICS_WRITING_APP: mkvpropedit v66.0.0 ('Josie') 64-bit
        _STATISTICS_WRITING_DATE_UTC: 2025-04-30 10:37:14
        _STATISTICS_TAGS: BPS DURATION NUMBER_OF_FRAMES NUMBER_OF_BYTES
Input #1, mov,mp4,m4a,3gp,3g2,mj2, from 'G:\Аниме\Онгоинги\!_37_Зима_2025\JamClub\Поднятие уровня в одиночку\ТВ-2\JamClub_Ore_dake_Level_Up_na_Ken_Season_2_13_1080p.mp4':
  Metadata:
    major_brand     : isom
    minor_version   : 512
    compatible_brands: isomiso2avc1mp41
    encoder         : Lavf60.16.100
  Duration: 00:24:02.31, start: 0.000000, bitrate: 5143 kb/s
  Stream #1:0[0x1](und): Video: h264 (High) (avc1 / 0x31637661), yuv420p(progressive), 1920x1080 [SAR 1:1 DAR 16:9], 4945 kb/s, 23.98 fps, 23.98 tbr, 90k tbn (default)
      Metadata:
        handler_name    : VideoHandler
        vendor_id       : [0][0][0][0]
  Stream #1:1[0x2](eng): Audio: aac (LC) (mp4a / 0x6134706D), 48000 Hz, stereo, fltp, 191 kb/s (default)
      Metadata:
        handler_name    : SoundHandler
        vendor_id       : [0][0][0][0]
Stream mapping:
  Stream #0:0 (hevc) -> settb:default
  Stream #1:0 (h264) -> settb:default
  ssim:default -> Stream #0:0 (wrapped_avframe)
  Stream #0:1 -> #0:1 (aac (native) -> pcm_s16le (native))
Output #0, null, to 'pipe:':
  Metadata:
    COMPATIBLE_BRANDS: isomiso2avc1mp41
    MAJOR_BRAND     : isom
    MINOR_VERSION   : 512
    encoder         : Lavf61.7.100
  Stream #0:0: Video: wrapped_avframe, yuv420p10le(tv, bt709, progressive), 1920x1080 [SAR 1:1 DAR 16:9], q=2-31, 200 kb/s, 23.98 fps, 23.98 tbn
      Metadata:
        encoder         : Lavc61.19.100 wrapped_avframe
  Stream #0:1(eng): Audio: pcm_s16le, 48000 Hz, stereo, s16, 1536 kb/s (default)
      Metadata:
        HANDLER_NAME    : SoundHandler
        VENDOR_ID       : [0][0][0][0]
        _STATISTICS_TAGS: BPS DURATION NUMBER_OF_FRAMES NUMBER_OF_BYTES
        BPS             : 194704
        DURATION        : 00:24:02.285000000
        NUMBER_OF_FRAMES: 67608
        NUMBER_OF_BYTES : 35102363
        _STATISTICS_WRITING_APP: mkvpropedit v66.0.0 ('Josie') 64-bit
        _STATISTICS_WRITING_DATE_UTC: 2025-04-30 10:37:14
        encoder         : Lavc61.19.100 pcm_s16le
frame=  106 fps=0.0 q=-0.0 size=N/A time=00:00:04.42 bitrate=N/A speed=8.56x    frame=  263 fps=256 q=-0.0 size=N/A time=00:00:10.96 bitrate=N/A speed=10.7x    frame=  446 fps=290 q=-0.0 size=N/A time=00:00:18.60 bitrate=N/A speed=12.1x    frame=  688 fps=333 q=-0.0 size=N/A time=00:00:28.69 bitrate=N/A speed=13.9x    frame=  930 fps=361 q=-0.0 size=N/A time=00:00:38.78 bitrate=N/A speed=15.1x    frame= 1173 fps=379 q=-0.0 size=N/A time=00:00:48.92 bitrate=N/A speed=15.8x    frame= 1404 fps=389 q=-0.0 size=N/A time=00:00:58.55 bitrate=N/A speed=16.2x    frame= 1657 fps=403 q=-0.0 size=N/A time=00:01:09.11 bitrate=N/A speed=16.8x    frame= 1867 fps=402 q=-0.0 size=N/A time=00:01:17.86 bitrate=N/A speed=16.8x    frame= 2060 fps=400 q=-0.0 size=N/A time=00:01:25.91 bitrate=N/A speed=16.7x    frame= 2265 fps=400 q=-0.0 size=N/A time=00:01:34.46 bitrate=N/A speed=16.7x    frame= 2479 fps=401 q=-0.0 size=N/A time=00:01:43.39 bitrate=N/A speed=16.7x    frame= 2671 fps=399 q=-0.0 size=N/A time=00:01:51.40 bitrate=N/A speed=16.6x    frame= 2844 fps=394 q=-0.0 size=N/A time=00:01:58.61 bitrate=N/A speed=16.4x    frame= 3013 fps=390 q=-0.0 size=N/A time=00:02:05.66 bitrate=N/A speed=16.3x    frame= 3197 fps=387 q=-0.0 size=N/A time=00:02:13.34 bitrate=N/A speed=16.2x    frame= 3385 fps=386 q=-0.0 size=N/A time=00:02:21.18 bitrate=N/A speed=16.1x    frame= 3568 fps=384 q=-0.0 size=N/A time=00:02:28.81 bitrate=N/A speed=  16x    frame= 3714 fps=379 q=-0.0 size=N/A time=00:02:34.90 bitrate=N/A speed=15.8x    frame= 3880 fps=376 q=-0.0 size=N/A time=00:02:41.82 bitrate=N/A speed=15.7x    frame= 4068 fps=376 q=-0.0 size=N/A time=00:02:49.66 bitrate=N/A speed=15.7x    frame= 4333 fps=382 q=-0.0 size=N/A time=00:03:00.72 bitrate=N/A speed=15.9x    frame= 4613 fps=389 q=-0.0 size=N/A time=00:03:12.40 bitrate=N/A speed=16.2x    frame= 4877 fps=394 q=-0.0 size=N/A time=00:03:23.41 bitrate=N/A speed=16.4x    frame= 5105 fps=396 q=-0.0 size=N/A time=00:03:32.92 bitrate=N/A speed=16.5x    frame= 5347 fps=399 q=-0.0 size=N/A time=00:03:43.01 bitrate=N/A speed=16.6x    frame= 5530 fps=397 q=-0.0 size=N/A time=00:03:50.64 bitrate=N/A speed=16.6x    frame= 5729 fps=397 q=-0.0 size=N/A time=00:03:58.94 bitrate=N/A speed=16.6x    frame= 5960 fps=399 q=-0.0 size=N/A time=00:04:08.58 bitrate=N/A speed=16.6x    frame= 6207 fps=401 q=-0.0 size=N/A time=00:04:18.88 bitrate=N/A speed=16.7x    frame= 6480 fps=405 q=-0.0 size=N/A time=00:04:30.27 bitrate=N/A speed=16.9x    frame= 6735 fps=408 q=-0.0 size=N/A time=00:04:40.90 bitrate=N/A speed=  17x    frame= 6995 fps=411 q=-0.0 size=N/A time=00:04:51.74 bitrate=N/A speed=17.1x    frame= 7233 fps=413 q=-0.0 size=N/A time=00:05:01.67 bitrate=N/A speed=17.2x    frame= 7467 fps=414 q=-0.0 size=N/A time=00:05:11.43 bitrate=N/A speed=17.3x    frame= 7700 fps=415 q=-0.0 size=N/A time=00:05:21.15 bitrate=N/A speed=17.3x    frame= 7959 fps=417 q=-0.0 size=N/A time=00:05:31.95 bitrate=N/A speed=17.4x    frame= 8199 fps=419 q=-0.0 size=N/A time=00:05:41.96 bitrate=N/A speed=17.5x    frame= 8486 fps=422 q=-0.0 size=N/A time=00:05:53.93 bitrate=N/A speed=17.6x    frame= 8774 fps=426 q=-0.0 size=N/A time=00:06:05.94 bitrate=N/A speed=17.8x    frame= 9029 fps=427 q=-0.0 size=N/A time=00:06:16.58 bitrate=N/A speed=17.8x    frame= 9262 fps=428 q=-0.0 size=N/A time=00:06:26.30 bitrate=N/A speed=17.8x    frame= 9477 fps=427 q=-0.0 size=N/A time=00:06:35.26 bitrate=N/A speed=17.8x    frame= 9733 fps=429 q=-0.0 size=N/A time=00:06:45.94 bitrate=N/A speed=17.9x    frame= 9971 fps=430 q=-0.0 size=N/A time=00:06:55.87 bitrate=N/A speed=17.9x    frame=10233 fps=431 q=-0.0 size=N/A time=00:07:06.80 bitrate=N/A speed=  18x    frame=10481 fps=433 q=-0.0 size=N/A time=00:07:17.14 bitrate=N/A speed=  18x    frame=10751 fps=435 q=-0.0 size=N/A time=00:07:28.40 bitrate=N/A speed=18.1x    frame=10960 fps=434 q=-0.0 size=N/A time=00:07:37.12 bitrate=N/A speed=18.1x    frame=11162 fps=433 q=-0.0 size=N/A time=00:07:45.54 bitrate=N/A speed=18.1x    frame=11369 fps=432 q=-0.0 size=N/A time=00:07:54.18 bitrate=N/A speed=  18x    frame=11601 fps=433 q=-0.0 size=N/A time=00:08:03.85 bitrate=N/A speed=18.1x    frame=11792 fps=431 q=-0.0 size=N/A time=00:08:11.82 bitrate=N/A speed=  18x    frame=11998 fps=431 q=-0.0 size=N/A time=00:08:20.41 bitrate=N/A speed=  18x    frame=12234 fps=432 q=-0.0 size=N/A time=00:08:30.25 bitrate=N/A speed=  18x    frame=12481 fps=432 q=-0.0 size=N/A time=00:08:40.56 bitrate=N/A speed=  18x    frame=12706 fps=432 q=-0.0 size=N/A time=00:08:49.94 bitrate=N/A speed=  18x    frame=12917 fps=432 q=-0.0 size=N/A time=00:08:58.74 bitrate=N/A speed=  18x    frame=13110 fps=431 q=-0.0 size=N/A time=00:09:06.79 bitrate=N/A speed=  18x    frame=13298 fps=430 q=-0.0 size=N/A time=00:09:14.63 bitrate=N/A speed=17.9x    frame=13530 fps=430 q=-0.0 size=N/A time=00:09:24.31 bitrate=N/A speed=17.9x    frame=13759 fps=431 q=-0.0 size=N/A time=00:09:33.86 bitrate=N/A speed=  18x    frame=13996 fps=431 q=-0.0 size=N/A time=00:09:43.74 bitrate=N/A speed=  18x    frame=14254 fps=432 q=-0.0 size=N/A time=00:09:54.51 bitrate=N/A speed=  18x    frame=14519 fps=433 q=-0.0 size=N/A time=00:10:05.56 bitrate=N/A speed=18.1x    frame=14746 fps=433 q=-0.0 size=N/A time=00:10:15.03 bitrate=N/A speed=18.1x    frame=14970 fps=433 q=-0.0 size=N/A time=00:10:24.37 bitrate=N/A speed=18.1x    frame=15192 fps=433 q=-0.0 size=N/A time=00:10:33.63 bitrate=N/A speed=18.1x    frame=15425 fps=434 q=-0.0 size=N/A time=00:10:43.35 bitrate=N/A speed=18.1x    frame=15660 fps=434 q=-0.0 size=N/A time=00:10:53.15 bitrate=N/A speed=18.1x    frame=15860 fps=433 q=-0.0 size=N/A time=00:11:01.49 bitrate=N/A speed=18.1x    frame=16091 fps=434 q=-0.0 size=N/A time=00:11:11.12 bitrate=N/A speed=18.1x    frame=16333 fps=434 q=-0.0 size=N/A time=00:11:21.22 bitrate=N/A speed=18.1x    frame=16575 fps=434 q=-0.0 size=N/A time=00:11:31.31 bitrate=N/A speed=18.1x    frame=16814 fps=435 q=-0.0 size=N/A time=00:11:41.28 bitrate=N/A speed=18.1x    frame=17059 fps=435 q=-0.0 size=N/A time=00:11:51.50 bitrate=N/A speed=18.2x    frame=17251 fps=434 q=-0.0 size=N/A time=00:11:59.51 bitrate=N/A speed=18.1x    frame=17463 fps=434 q=-0.0 size=N/A time=00:12:08.35 bitrate=N/A speed=18.1x    frame=17668 fps=434 q=-0.0 size=N/A time=00:12:16.90 bitrate=N/A speed=18.1x    frame=17882 fps=434 q=-0.0 size=N/A time=00:12:25.82 bitrate=N/A speed=18.1x    frame=18125 fps=434 q=-0.0 size=N/A time=00:12:35.96 bitrate=N/A speed=18.1x    frame=18374 fps=435 q=-0.0 size=N/A time=00:12:46.34 bitrate=N/A speed=18.1x    frame=18630 fps=435 q=-0.0 size=N/A time=00:12:57.02 bitrate=N/A speed=18.2x    frame=18903 fps=436 q=-0.0 size=N/A time=00:13:08.41 bitrate=N/A speed=18.2x    frame=19123 fps=436 q=-0.0 size=N/A time=00:13:17.58 bitrate=N/A speed=18.2x    frame=19361 fps=437 q=-0.0 size=N/A time=00:13:27.51 bitrate=N/A speed=18.2x    frame=19578 fps=436 q=-0.0 size=N/A time=00:13:36.56 bitrate=N/A speed=18.2x    frame=19766 fps=436 q=-0.0 size=N/A time=00:13:44.40 bitrate=N/A speed=18.2x    frame=19957 fps=435 q=-0.0 size=N/A time=00:13:52.37 bitrate=N/A speed=18.1x    frame=20191 fps=435 q=-0.0 size=N/A time=00:14:02.13 bitrate=N/A speed=18.2x    frame=20422 fps=435 q=-0.0 size=N/A time=00:14:11.76 bitrate=N/A speed=18.2x    frame=20630 fps=435 q=-0.0 size=N/A time=00:14:20.44 bitrate=N/A speed=18.1x    frame=20865 fps=435 q=-0.0 size=N/A time=00:14:30.24 bitrate=N/A speed=18.1x    frame=21121 fps=436 q=-0.0 size=N/A time=00:14:40.92 bitrate=N/A speed=18.2x    frame=21367 fps=436 q=-0.0 size=N/A time=00:14:51.18 bitrate=N/A speed=18.2x    frame=21637 fps=437 q=-0.0 size=N/A time=00:15:02.44 bitrate=N/A speed=18.2x    frame=21872 fps=437 q=-0.0 size=N/A time=00:15:12.24 bitrate=N/A speed=18.2x    frame=22118 fps=438 q=-0.0 size=N/A time=00:15:22.50 bitrate=N/A speed=18.3x    frame=22409 fps=439 q=-0.0 size=N/A time=00:15:34.64 bitrate=N/A speed=18.3x    frame=22684 fps=440 q=-0.0 size=N/A time=00:15:46.11 bitrate=N/A speed=18.4x    frame=22952 fps=441 q=-0.0 size=N/A time=00:15:57.28 bitrate=N/A speed=18.4x    frame=23214 fps=441 q=-0.0 size=N/A time=00:16:08.21 bitrate=N/A speed=18.4x    frame=23506 fps=443 q=-0.0 size=N/A time=00:16:20.39 bitrate=N/A speed=18.5x    frame=23749 fps=443 q=-0.0 size=N/A time=00:16:30.53 bitrate=N/A speed=18.5x    frame=23994 fps=443 q=-0.0 size=N/A time=00:16:40.74 bitrate=N/A speed=18.5x    frame=24238 fps=443 q=-0.0 size=N/A time=00:16:50.92 bitrate=N/A speed=18.5x    frame=24492 fps=444 q=-0.0 size=N/A time=00:17:01.52 bitrate=N/A speed=18.5x    frame=24743 fps=444 q=-0.0 size=N/A time=00:17:11.98 bitrate=N/A speed=18.5x    frame=25000 fps=445 q=-0.0 size=N/A time=00:17:22.70 bitrate=N/A speed=18.5x    frame=25269 fps=445 q=-0.0 size=N/A time=00:17:33.92 bitrate=N/A speed=18.6x    frame=25496 fps=445 q=-0.0 size=N/A time=00:17:43.39 bitrate=N/A speed=18.6x    frame=25736 fps=445 q=-0.0 size=N/A time=00:17:53.40 bitrate=N/A speed=18.6x    frame=26008 fps=446 q=-0.0 size=N/A time=00:18:04.75 bitrate=N/A speed=18.6x    frame=26238 fps=446 q=-0.0 size=N/A time=00:18:14.34 bitrate=N/A speed=18.6x    frame=26476 fps=446 q=-0.0 size=N/A time=00:18:24.26 bitrate=N/A speed=18.6x    frame=26707 fps=446 q=-0.0 size=N/A time=00:18:33.90 bitrate=N/A speed=18.6x    frame=26968 fps=447 q=-0.0 size=N/A time=00:18:44.79 bitrate=N/A speed=18.6x    frame=27260 fps=448 q=-0.0 size=N/A time=00:18:56.96 bitrate=N/A speed=18.7x    frame=27541 fps=449 q=-0.0 size=N/A time=00:19:08.68 bitrate=N/A speed=18.7x    frame=27824 fps=449 q=-0.0 size=N/A time=00:19:20.49 bitrate=N/A speed=18.7x    frame=28064 fps=450 q=-0.0 size=N/A time=00:19:30.50 bitrate=N/A speed=18.8x    frame=28311 fps=450 q=-0.0 size=N/A time=00:19:40.80 bitrate=N/A speed=18.8x    frame=28547 fps=450 q=-0.0 size=N/A time=00:19:50.64 bitrate=N/A speed=18.8x    frame=28762 fps=450 q=-0.0 size=N/A time=00:19:59.61 bitrate=N/A speed=18.8x    frame=28979 fps=449 q=-0.0 size=N/A time=00:20:08.66 bitrate=N/A speed=18.7x    frame=29192 fps=449 q=-0.0 size=N/A time=00:20:17.59 bitrate=N/A speed=18.7x    frame=29397 fps=449 q=-0.0 size=N/A time=00:20:26.09 bitrate=N/A speed=18.7x    frame=29577 fps=448 q=-0.0 size=N/A time=00:20:33.60 bitrate=N/A speed=18.7x    frame=29741 fps=447 q=-0.0 size=N/A time=00:20:40.44 bitrate=N/A speed=18.6x    frame=29936 fps=446 q=-0.0 size=N/A time=00:20:48.58 bitrate=N/A speed=18.6x    frame=30185 fps=447 q=-0.0 size=N/A time=00:20:58.96 bitrate=N/A speed=18.6x    frame=30414 fps=447 q=-0.0 size=N/A time=00:21:08.51 bitrate=N/A speed=18.6x    frame=30654 fps=447 q=-0.0 size=N/A time=00:21:18.52 bitrate=N/A speed=18.6x    frame=30848 fps=446 q=-0.0 size=N/A time=00:21:26.61 bitrate=N/A speed=18.6x    frame=31036 fps=446 q=-0.0 size=N/A time=00:21:34.45 bitrate=N/A speed=18.6x    frame=31248 fps=445 q=-0.0 size=N/A time=00:21:43.30 bitrate=N/A speed=18.6x    frame=31444 fps=445 q=-0.0 size=N/A time=00:21:51.47 bitrate=N/A speed=18.6x    frame=31667 fps=445 q=-0.0 size=N/A time=00:22:00.77 bitrate=N/A speed=18.6x    frame=31876 fps=445 q=-0.0 size=N/A time=00:22:09.49 bitrate=N/A speed=18.5x    frame=32088 fps=444 q=-0.0 size=N/A time=00:22:18.33 bitrate=N/A speed=18.5x    frame=32251 fps=443 q=-0.0 size=N/A time=00:22:25.13 bitrate=N/A speed=18.5x    frame=32424 fps=443 q=-0.0 size=N/A time=00:22:32.35 bitrate=N/A speed=18.5x    frame=32620 fps=442 q=-0.0 size=N/A time=00:22:40.52 bitrate=N/A speed=18.4x    frame=32785 fps=441 q=-0.0 size=N/A time=00:22:47.40 bitrate=N/A speed=18.4x    frame=32942 fps=440 q=-0.0 size=N/A time=00:22:53.95 bitrate=N/A speed=18.4x    frame=33069 fps=439 q=-0.0 size=N/A time=00:22:59.25 bitrate=N/A speed=18.3x    frame=33205 fps=438 q=-0.0 size=N/A time=00:23:04.92 bitrate=N/A speed=18.3x    frame=33340 fps=437 q=-0.0 size=N/A time=00:23:10.55 bitrate=N/A speed=18.2x    frame=33471 fps=435 q=-0.0 size=N/A time=00:23:16.01 bitrate=N/A speed=18.2x    frame=33672 fps=435 q=-0.0 size=N/A time=00:23:24.40 bitrate=N/A speed=18.1x    frame=33803 fps=434 q=-0.0 size=N/A time=00:23:29.86 bitrate=N/A speed=18.1x    frame=33904 fps=432 q=-0.0 size=N/A time=00:23:34.07 bitrate=N/A speed=  18x    frame=34057 fps=431 q=-0.0 size=N/A time=00:23:40.46 bitrate=N/A speed=  18x    frame=34193 fps=430 q=-0.0 size=N/A time=00:23:46.13 bitrate=N/A speed=  18x    frame=34378 fps=430 q=-0.0 size=N/A time=00:23:53.84 bitrate=N/A speed=17.9x    [Parsed_ssim_10 @ 0000023984b7a2c0] SSIM Y:0.992949 (21.517473) U:0.993149 (21.642434) V:0.993261 (21.713940) All:0.993034 (21.570339)
[out#0/null @ 00000239f8fcfe00] video:14858KiB audio:270432KiB subtitle:0KiB other streams:0KiB global headers:0KiB muxing overhead: unknown
frame=34578 fps=430 q=-0.0 Lsize=N/A time=00:24:02.19 bitrate=N/A speed=17.9x    
